<svg width="160" height="175" viewBox="0 0 160 175" fill="none" xmlns="http://www.w3.org/2000/svg">
<path d="M78.0781 112.705C73.332 112.705 68.9082 111.943 64.8066 110.42C60.7637 108.838 57.248 106.611 54.2598 103.74C51.2715 100.869 48.9277 97.5 47.2285 93.6328C45.5879 89.7656 44.7676 85.5176 44.7676 80.8887C44.7676 76.2598 45.5879 72.0117 47.2285 68.1445C48.9277 64.2773 51.2715 60.9082 54.2598 58.0371C57.3066 55.166 60.8516 52.9687 64.8945 51.4453C68.9375 49.8633 73.3613 49.0723 78.166 49.0723C83.4981 49.0723 88.3027 50.0098 92.5801 51.8848C96.0885 53.3545 99.1365 55.3997 101.724 58.0203C102.76 59.0688 102.633 60.7511 101.55 61.7506L96.4345 66.4729C95.2851 67.5339 93.4997 67.4225 92.3366 66.3766C90.7729 64.9702 89.0962 63.8603 87.3066 63.0469C84.7285 61.8164 81.916 61.2012 78.8691 61.2012C75.9981 61.2012 73.3613 61.6699 70.959 62.6074C68.5566 63.5449 66.4766 64.8926 64.7188 66.6504C62.9609 68.4082 61.584 70.4883 60.5879 72.8906C59.6504 75.293 59.1816 77.959 59.1816 80.8887C59.1816 83.8184 59.6504 86.4844 60.5879 88.8867C61.584 91.2891 62.9609 93.3691 64.7188 95.1269C66.4766 96.8848 68.5566 98.2324 70.959 99.1699C73.3613 100.107 75.9981 100.576 78.8691 100.576C81.916 100.576 84.7285 99.9902 87.3066 98.8184C89.0974 97.9637 90.7751 96.8121 92.3398 95.3638C93.4972 94.2923 95.3007 94.17 96.4597 95.2398L101.55 99.9388C102.633 100.938 102.759 102.62 101.726 103.671C99.1378 106.301 96.0892 108.375 92.5801 109.893C88.3027 111.768 83.4688 112.705 78.0781 112.705Z" fill="white"/>
<path d="M117.863 37.5C123.122 37.5 127.385 41.7629 127.385 47.0215C127.385 52.2801 123.122 56.543 117.863 56.543L110.686 56.543C109.391 56.543 108.342 55.4936 108.342 54.1992L108.342 47.0215C108.342 41.7629 112.605 37.5 117.863 37.5Z" fill="#B2FF34"/>
<path d="M24.24 152.395C24.85 152.395 25.375 152.295 25.815 152.095C26.255 151.885 26.715 151.555 27.195 151.105L28.335 152.275C27.225 153.505 25.875 154.12 24.285 154.12C22.705 154.12 21.39 153.61 20.34 152.59C19.3 151.57 18.78 150.28 18.78 148.72C18.78 147.16 19.31 145.86 20.37 144.82C21.44 143.78 22.785 143.26 24.405 143.26C26.035 143.26 27.395 143.86 28.485 145.06L27.36 146.29C26.86 145.81 26.385 145.475 25.935 145.285C25.495 145.095 24.975 145 24.375 145C23.315 145 22.425 145.345 21.705 146.035C20.985 146.715 20.625 147.59 20.625 148.66C20.625 149.72 20.98 150.61 21.69 151.33C22.41 152.04 23.26 152.395 24.24 152.395ZM38.9849 151.615L37.9349 154H36.0449L40.6649 143.515H42.5549L47.1749 154H45.2849L44.2349 151.615H38.9849ZM43.5149 149.98L41.6099 145.66L39.7049 149.98H43.5149ZM57.4027 145.165V148.045H62.0527V149.68H57.4027V154H55.6327V143.515H62.6227L62.6077 145.165H57.4027ZM79.0505 143.515V145.18H73.4555V147.955H78.4805V149.53H73.4555V152.335H79.2305V154H71.6855V143.515H79.0505ZM96.3599 143.515H98.1299V154H96.2099L90.2699 146.35V154H88.4999V143.515H90.2699L96.3599 151.345V143.515ZM115.509 145.99C114.799 145.25 113.924 144.88 112.884 144.88C111.844 144.88 110.964 145.25 110.244 145.99C109.534 146.73 109.179 147.63 109.179 148.69C109.179 149.74 109.534 150.635 110.244 151.375C110.964 152.115 111.844 152.485 112.884 152.485C113.924 152.485 114.799 152.115 115.509 151.375C116.229 150.635 116.589 149.74 116.589 148.69C116.589 147.63 116.229 146.73 115.509 145.99ZM116.814 152.56C115.754 153.59 114.444 154.105 112.884 154.105C111.324 154.105 110.014 153.59 108.954 152.56C107.894 151.52 107.364 150.23 107.364 148.69C107.364 147.14 107.894 145.85 108.954 144.82C110.014 143.78 111.324 143.26 112.884 143.26C114.444 143.26 115.754 143.78 116.814 144.82C117.874 145.85 118.404 147.14 118.404 148.69C118.404 150.23 117.874 151.52 116.814 152.56ZM130.907 151.06L133.247 143.515H134.837L137.177 151.06L139.817 143.515H141.722L138.062 154H136.307L134.102 146.815H133.982L131.777 154H130.022L126.362 143.515H128.267L130.907 151.06Z" fill="#999999"/>
</svg>
